<?xml version="1.0" encoding="iso-8859-1"?>
<!-- Uploaded to: SVG Repo, www.svgrepo.com, Generator: SVG Repo Mixer Tools -->
<svg height="800px" width="800px" version="1.1" id="Layer_1" xmlns="http://www.w3.org/2000/svg" xmlns:xlink="http://www.w3.org/1999/xlink" 
	 viewBox="0 0 473.931 473.931" xml:space="preserve">
<circle style="fill:#E8E8DF;" cx="236.966" cy="236.966" r="236.966"/>
<path style="fill:#857856;" d="M305.601,363.875c-11.917,22.641-31.438,48.123-57.806,44.186l7.719,3.012
	c26.361,3.94,50.547-21.062,62.457-43.696C317.975,367.374,305.81,363.478,305.601,363.875z"/>
<path style="fill:#B1C635;" d="M376.563,190.538c-44.871,46.952-87.565,46.267-104.926,90.801
	c-12.999,33.328,3.495,70.884,36.823,83.883c33.332,12.995,70.888-3.491,83.887-36.823
	C416.308,266.941,376.563,190.538,376.563,190.538z"/>
<path style="fill:#857856;" d="M105.753,225.722c-10.264-23.438-18.002-54.592,1.523-72.744l-7.169,4.157
	c-19.528,18.148-15.027,53.511-4.767,76.942C95.34,234.073,105.937,226.126,105.753,225.722z"/>
<path style="fill:#B1C635;" d="M196.974,389.311c-8.707-64.358,18.454-97.308-5.519-138.655
	c-17.957-30.948-57.589-41.489-88.538-23.543c-30.948,17.949-41.492,57.586-23.543,88.538
	C112.47,372.713,196.974,389.311,196.974,389.311z"/>
<path style="fill:#857856;" d="M306.241,126.427c25.422,2.877,56.257,11.809,62.166,37.81v-8.295
	c-5.908-25.983-38.121-40.591-63.531-43.476C304.879,112.466,305.795,126.378,306.241,126.427z"/>
<path style="fill:#B1C635;" d="M118.966,123.276c60.044,24.752,74.914,64.777,122.711,64.777
	c35.782-0.004,64.781-29.002,64.781-64.781s-28.999-64.781-64.781-64.777C175.709,58.495,118.966,123.276,118.966,123.276z"/>
</svg>